<svg viewBox="0 0 128 128" fill="none" xmlns="http://www.w3.org/2000/svg">
<path d="M12.9199 84.5333V71.84H0V61.3867H12.9199V48.6933H24.3199V61.3867H37.2398V71.84H24.3199V84.5333H12.9199Z" fill="black"/>
<path d="M64.494 92C60.7953 92 57.5527 91.328 54.766 89.984C51.9794 88.5902 49.8007 86.6738 48.2301 84.2347C46.7101 81.7458 45.9501 78.8587 45.9501 75.5733V52.4267C45.9501 49.0916 46.7101 46.2044 48.2301 43.7653C49.8007 41.3262 51.9794 39.4347 54.766 38.0907C57.5527 36.6969 60.7953 36 64.494 36C68.2433 36 71.486 36.6969 74.2219 38.0907C77.0086 39.4347 79.1619 41.3262 80.6819 43.7653C82.2526 46.2044 83.0379 49.0916 83.0379 52.4267H71.638C71.638 50.2364 71.0046 48.5689 69.738 47.424C68.522 46.2791 66.774 45.7067 64.494 45.7067C62.214 45.7067 60.4407 46.2791 59.174 47.424C57.958 48.5689 57.35 50.2364 57.35 52.4267V75.5733C57.35 77.7138 57.958 79.3813 59.174 80.576C60.4407 81.7209 62.214 82.2933 64.494 82.2933C66.774 82.2933 68.522 81.7209 69.738 80.576C71.0046 79.3813 71.638 77.7138 71.638 75.5733H83.0379C83.0379 78.8587 82.2526 81.7458 80.6819 84.2347C79.1619 86.6738 77.0086 88.5902 74.2219 89.984C71.486 91.328 68.2433 92 64.494 92Z" fill="black"/>
<path d="M109.456 92C105.656 92 102.363 91.3778 99.5761 90.1333C96.8401 88.8391 94.7122 87.0222 93.1922 84.6827C91.6722 82.2933 90.9122 79.5058 90.9122 76.32H102.312C102.312 78.3111 102.92 79.8791 104.136 81.024C105.403 82.1191 107.176 82.6667 109.456 82.6667C111.787 82.6667 113.56 82.1191 114.776 81.024C115.992 79.9289 116.6 78.3609 116.6 76.32V71.84C116.6 69.7991 115.967 68.2311 114.7 67.136C113.484 65.9911 111.736 65.4187 109.456 65.4187H102.92V55.7867L114.092 46.08H93.5722V36.7467H125.72V46.3787L109.456 60.4907V55.936C115.181 55.936 119.691 57.3547 122.984 60.192C126.328 63.0293 128 66.8871 128 71.7653V76.32C128 79.5058 127.24 82.2933 125.72 84.6827C124.251 87.0222 122.123 88.8391 119.336 90.1333C116.549 91.3778 113.256 92 109.456 92Z" fill="black"/>
    <style>
        path { fill: #000; }
        @media (prefers-color-scheme: dark) {
            path { fill: #FFF; }
        }
    </style>
</svg>
